<mxfile host="Electron" modified="2023-11-04T15:12:28.268Z" agent="Mozilla/5.0 (Macintosh; Intel Mac OS X 10_15_7) AppleWebKit/537.36 (KHTML, like Gecko) draw.io/22.0.3 Chrome/114.0.5735.289 Electron/25.8.4 Safari/537.36" etag="Xuq8LtSxnLTZCTaoq5_2" version="22.0.3" type="device">
  <diagram name="增量统计方案" id="gfleWx9gH6wlCJ9eNgpw">
    <mxGraphModel dx="1434" dy="854" grid="1" gridSize="10" guides="1" tooltips="1" connect="1" arrows="1" fold="1" page="1" pageScale="1" pageWidth="827" pageHeight="1169" math="0" shadow="0">
      <root>
        <mxCell id="0" />
        <mxCell id="1" parent="0" />
        <mxCell id="1c-KG4fUQ0D95Aer6QDa-17" style="edgeStyle=orthogonalEdgeStyle;rounded=0;orthogonalLoop=1;jettySize=auto;html=1;entryX=0.5;entryY=0;entryDx=0;entryDy=0;fontFamily=Comic Sans MS;fontSize=13;" edge="1" parent="1" source="1c-KG4fUQ0D95Aer6QDa-1" target="1c-KG4fUQ0D95Aer6QDa-2">
          <mxGeometry relative="1" as="geometry" />
        </mxCell>
        <mxCell id="1c-KG4fUQ0D95Aer6QDa-1" value="开始" style="rounded=0;whiteSpace=wrap;html=1;fontFamily=Comic Sans MS;fontSize=13;" vertex="1" parent="1">
          <mxGeometry x="110" y="60" width="120" height="60" as="geometry" />
        </mxCell>
        <mxCell id="1c-KG4fUQ0D95Aer6QDa-18" style="edgeStyle=orthogonalEdgeStyle;rounded=0;orthogonalLoop=1;jettySize=auto;html=1;entryX=0.5;entryY=0;entryDx=0;entryDy=0;fontFamily=Comic Sans MS;fontSize=13;" edge="1" parent="1" source="1c-KG4fUQ0D95Aer6QDa-2" target="1c-KG4fUQ0D95Aer6QDa-3">
          <mxGeometry relative="1" as="geometry" />
        </mxCell>
        <mxCell id="1c-KG4fUQ0D95Aer6QDa-2" value="javaagent部署服务" style="rounded=0;whiteSpace=wrap;html=1;fontFamily=Comic Sans MS;fontSize=13;" vertex="1" parent="1">
          <mxGeometry x="100" y="200" width="140" height="60" as="geometry" />
        </mxCell>
        <mxCell id="1c-KG4fUQ0D95Aer6QDa-19" style="edgeStyle=orthogonalEdgeStyle;rounded=0;orthogonalLoop=1;jettySize=auto;html=1;entryX=0.5;entryY=0;entryDx=0;entryDy=0;fontFamily=Comic Sans MS;fontSize=13;" edge="1" parent="1" source="1c-KG4fUQ0D95Aer6QDa-3" target="1c-KG4fUQ0D95Aer6QDa-7">
          <mxGeometry relative="1" as="geometry" />
        </mxCell>
        <mxCell id="1c-KG4fUQ0D95Aer6QDa-3" value="测试完毕，执行dump命令生成exec文件" style="rounded=0;whiteSpace=wrap;html=1;fontFamily=Comic Sans MS;fontSize=13;" vertex="1" parent="1">
          <mxGeometry x="100" y="330" width="140" height="60" as="geometry" />
        </mxCell>
        <mxCell id="1c-KG4fUQ0D95Aer6QDa-10" style="edgeStyle=orthogonalEdgeStyle;rounded=0;orthogonalLoop=1;jettySize=auto;html=1;fontFamily=Comic Sans MS;fontSize=13;" edge="1" parent="1" source="1c-KG4fUQ0D95Aer6QDa-7">
          <mxGeometry relative="1" as="geometry">
            <mxPoint x="370" y="510" as="targetPoint" />
          </mxGeometry>
        </mxCell>
        <mxCell id="1c-KG4fUQ0D95Aer6QDa-12" value="是" style="edgeLabel;html=1;align=center;verticalAlign=middle;resizable=0;points=[];fontFamily=Comic Sans MS;fontSize=13;" vertex="1" connectable="0" parent="1c-KG4fUQ0D95Aer6QDa-10">
          <mxGeometry x="-0.032" y="-4" relative="1" as="geometry">
            <mxPoint y="-5" as="offset" />
          </mxGeometry>
        </mxCell>
        <mxCell id="1c-KG4fUQ0D95Aer6QDa-11" style="edgeStyle=orthogonalEdgeStyle;rounded=0;orthogonalLoop=1;jettySize=auto;html=1;fontFamily=Comic Sans MS;fontSize=13;" edge="1" parent="1" source="1c-KG4fUQ0D95Aer6QDa-7">
          <mxGeometry relative="1" as="geometry">
            <mxPoint x="170" y="630" as="targetPoint" />
          </mxGeometry>
        </mxCell>
        <mxCell id="1c-KG4fUQ0D95Aer6QDa-13" value="否" style="edgeLabel;html=1;align=center;verticalAlign=middle;resizable=0;points=[];fontFamily=Comic Sans MS;fontSize=13;" vertex="1" connectable="0" parent="1c-KG4fUQ0D95Aer6QDa-11">
          <mxGeometry x="0.0943" y="-1" relative="1" as="geometry">
            <mxPoint as="offset" />
          </mxGeometry>
        </mxCell>
        <mxCell id="1c-KG4fUQ0D95Aer6QDa-7" value="全量" style="rounded=0;whiteSpace=wrap;html=1;fontFamily=Comic Sans MS;fontSize=13;" vertex="1" parent="1">
          <mxGeometry x="110" y="480" width="120" height="60" as="geometry" />
        </mxCell>
        <mxCell id="1c-KG4fUQ0D95Aer6QDa-16" style="edgeStyle=orthogonalEdgeStyle;rounded=0;orthogonalLoop=1;jettySize=auto;html=1;fontFamily=Comic Sans MS;fontSize=13;" edge="1" parent="1" source="1c-KG4fUQ0D95Aer6QDa-8" target="1c-KG4fUQ0D95Aer6QDa-15">
          <mxGeometry relative="1" as="geometry" />
        </mxCell>
        <mxCell id="1c-KG4fUQ0D95Aer6QDa-8" value="report 生成报告" style="rounded=0;whiteSpace=wrap;html=1;fontFamily=Comic Sans MS;fontSize=13;" vertex="1" parent="1">
          <mxGeometry x="380" y="480" width="120" height="60" as="geometry" />
        </mxCell>
        <mxCell id="1c-KG4fUQ0D95Aer6QDa-14" style="edgeStyle=orthogonalEdgeStyle;rounded=0;orthogonalLoop=1;jettySize=auto;html=1;entryX=0.25;entryY=1;entryDx=0;entryDy=0;fontFamily=Comic Sans MS;fontSize=13;" edge="1" parent="1" source="1c-KG4fUQ0D95Aer6QDa-9" target="1c-KG4fUQ0D95Aer6QDa-8">
          <mxGeometry relative="1" as="geometry" />
        </mxCell>
        <mxCell id="1c-KG4fUQ0D95Aer6QDa-9" value="计算增量代码" style="rounded=0;whiteSpace=wrap;html=1;fillColor=#f8cecc;strokeColor=#b85450;fontFamily=Comic Sans MS;fontSize=13;" vertex="1" parent="1">
          <mxGeometry x="110" y="640" width="120" height="60" as="geometry" />
        </mxCell>
        <mxCell id="1c-KG4fUQ0D95Aer6QDa-15" value="结束" style="rounded=0;whiteSpace=wrap;html=1;fontFamily=Comic Sans MS;fontSize=13;" vertex="1" parent="1">
          <mxGeometry x="380" y="730" width="120" height="60" as="geometry" />
        </mxCell>
      </root>
    </mxGraphModel>
  </diagram>
</mxfile>
